<svg width="173" height="55" viewBox="0 0 173 55" fill="none" xmlns="http://www.w3.org/2000/svg">
<g clip-path="url(#clip0_316_2573)">
<path d="M66.3652 48.7956H65.0272C64.7675 48.7956 64.6697 48.7679 64.5842 49.017H64.3642V47.3809H64.5964C64.6453 47.6146 64.7797 47.6146 65.0302 47.6146H68.2531V47.8576C68.0026 47.8853 67.801 47.9652 67.801 48.3035V49.9889C67.801 50.2595 67.9079 50.3856 68.137 50.3856V50.6563C67.1656 51.3729 65.6259 51.7296 64.349 51.7296C62.2045 51.7296 60.2891 50.3826 60.2891 48.0113C60.2891 45.6401 62.3267 44.3115 64.5017 44.3115C65.4151 44.3115 66.4171 44.5822 67.2725 44.862C67.4649 44.9297 67.5719 44.8713 67.6268 44.7851L67.8682 44.8928L67.0037 46.5874L66.7837 46.4797C66.8234 46.2675 66.6187 46.083 66.3988 45.9477C65.7939 45.6002 65.073 45.4925 64.3979 45.4925C62.9346 45.4925 61.8409 46.4982 61.8409 48.0298C61.8409 49.5614 63.1881 50.5363 64.572 50.5363C65.2349 50.5363 65.8611 50.3826 66.3713 50.0812V48.7925L66.3652 48.7956Z" fill="white"/>
<path d="M77.2927 51.517H74.7358V51.274C74.861 51.2556 74.9863 51.1972 74.9863 51.0526C74.9863 50.945 74.9099 50.8189 74.8335 50.7235L73.41 48.7952H71.6015V50.8865C71.6015 51.148 71.687 51.2156 71.9375 51.274V51.517H69.7441V51.274C69.9946 51.2156 70.071 51.1387 70.071 50.8865V45.1354C70.071 44.8739 69.9946 44.8063 69.7441 44.7478V44.5049H74.0057C75.3132 44.5049 76.8925 44.8924 76.8925 46.5286C76.8925 47.728 76.1135 48.4077 74.9985 48.6599L76.4312 50.6067C76.6726 50.9357 76.9322 51.1572 77.2958 51.274V51.517H77.2927ZM73.6085 45.7074H71.5984V47.6357H73.6574C74.36 47.6357 75.4262 47.5958 75.4262 46.6393C75.4262 45.6828 74.2806 45.7105 73.6085 45.7105V45.7074Z" fill="white"/>
<path d="M82.7179 51.7479C80.5336 51.7479 78.5449 50.2962 78.5449 48.0111C78.5449 45.726 80.6039 44.2744 82.8248 44.2744C85.0457 44.2744 86.9305 45.7568 86.9305 48.0111C86.9305 50.2655 84.9204 51.7479 82.7179 51.7479ZM82.7179 45.4339C81.2088 45.4339 79.996 46.4795 79.996 48.0081C79.996 49.5366 81.2088 50.5823 82.7179 50.5823C84.227 50.5823 85.4795 49.5366 85.4795 48.0081C85.4795 46.4795 84.2484 45.4339 82.7179 45.4339Z" fill="white"/>
<path d="M96.1712 44.7478C95.9207 44.8063 95.8443 44.8739 95.8443 45.1354V48.9613C95.8443 50.985 94.8454 51.7508 92.2945 51.7508C89.7437 51.7508 88.7845 50.9265 88.7845 48.9613V45.1354C88.7845 44.8739 88.7265 44.7971 88.4668 44.7478V44.5049H90.651V44.7478C90.4005 44.7971 90.3333 44.8739 90.3333 45.1354V48.8629C90.3333 50.1515 90.9107 50.5974 92.3037 50.5974C93.6967 50.5974 94.2955 50.0746 94.2955 48.826V45.1354C94.2955 44.8739 94.2283 44.7971 93.9778 44.7478V44.5049H96.1712V44.7478Z" fill="white"/>
<path d="M102.107 48.8258H99.5195V50.8895C99.5195 51.1601 99.5958 51.2185 99.8463 51.277V51.5199H97.6621V51.277C97.8821 51.2278 97.989 51.2001 97.989 50.8802V45.1383C97.989 44.8953 97.9615 44.8092 97.6621 44.7508V44.5078H101.924C103.741 44.5078 104.78 45.3413 104.78 46.6268C104.78 47.9124 103.75 48.8258 102.107 48.8258ZM101.511 45.6796H99.5195V47.6356H101.569C102.761 47.6356 103.32 47.2665 103.32 46.6391C103.32 46.0117 102.819 45.6796 101.511 45.6796Z" fill="white"/>
<path d="M117.486 50.644L117.294 50.7701C117.187 50.6932 117.092 50.6255 117.016 50.6747C116.035 51.3052 114.795 51.7296 113.487 51.7296C111.15 51.7296 109.391 50.1519 109.391 48.0298C109.391 45.9077 111.092 44.3115 113.661 44.3115C115.009 44.3115 116.316 44.8743 116.612 44.9697C116.728 45.0097 116.921 45.0189 117.025 44.9112L117.226 45.0466L116.197 46.7104L115.986 46.5843L116.035 46.4582C116.035 46.0707 114.786 45.5386 113.622 45.5386C112.036 45.5386 110.939 46.5659 110.939 47.9498C110.939 49.4322 112.036 50.5056 113.661 50.5056C114.795 50.5056 115.989 49.8474 116.258 49.5091C116.334 49.4138 116.298 49.2661 116.249 49.1493L116.45 49.0232L117.489 50.6409L117.486 50.644Z" fill="white"/>
<path d="M122.929 51.7479C120.745 51.7479 118.756 50.2962 118.756 48.0111C118.756 45.726 120.815 44.2744 123.036 44.2744C125.257 44.2744 127.141 45.7568 127.141 48.0111C127.141 50.2655 125.131 51.7479 122.929 51.7479ZM122.929 45.4339C121.42 45.4339 120.207 46.4795 120.207 48.0081C120.207 49.5366 121.42 50.5823 122.929 50.5823C124.438 50.5823 125.69 49.5366 125.69 48.0081C125.69 46.4795 124.459 45.4339 122.929 45.4339Z" fill="white"/>
<path d="M137.699 51.517H135.554V51.274C135.805 51.2156 135.881 51.1387 135.881 50.8865V46.6054L133.092 51.3294L130.437 46.6054V50.8865C130.437 51.148 130.504 51.2064 130.755 51.274V51.517H128.727V51.274C128.968 51.2156 129.053 51.148 129.053 50.8865V45.1354C129.053 44.8739 128.968 44.8063 128.727 44.7478V44.5049H131.4V44.7478C131.189 44.7755 131.122 45 131.225 45.1938L133.187 48.7368L135.224 45.2615C135.35 45.04 135.31 44.8247 135.081 44.7478V44.5049H137.696V44.7478C137.387 44.834 137.36 44.9139 137.36 45.1354V50.8865C137.36 51.1387 137.445 51.2156 137.696 51.274V51.517H137.699Z" fill="white"/>
<path d="M143.683 48.8258H141.096V50.8895C141.096 51.1601 141.172 51.2185 141.423 51.277V51.5199H139.238V51.277C139.458 51.2278 139.565 51.2001 139.565 50.8802V45.1383C139.565 44.8953 139.538 44.8092 139.238 44.7508V44.5078H143.5C145.317 44.5078 146.356 45.3413 146.356 46.6268C146.356 47.9124 145.327 48.8258 143.683 48.8258ZM143.087 45.6796H141.096V47.6356H143.145C144.337 47.6356 144.896 47.2665 144.896 46.6391C144.896 46.0117 144.395 45.6796 143.087 45.6796Z" fill="white"/>
<path d="M148.789 49.9485L148.511 50.7235C148.358 51.0434 148.453 51.2187 148.743 51.274V51.517H146.357V51.274C146.715 51.1879 146.877 50.8773 147.02 50.5851L149.214 45.2799C149.308 45.0677 149.33 44.8524 148.936 44.7478V44.5049H152.351V44.7478C151.926 44.8555 151.975 45.0861 152.073 45.2984L154.257 50.5851C154.401 50.8742 154.566 51.1849 154.92 51.274V51.517H152.534V51.274C152.822 51.2156 152.947 51.0403 152.794 50.7235L152.495 49.9485H148.792H148.789ZM150.857 45.7074H150.414L149.192 48.8844H152.088L150.857 45.7074Z" fill="white"/>
<path d="M163.831 51.517H161.744V51.274C162.062 51.2341 161.927 50.9634 161.735 50.7512L157.84 46.6854V50.8865C157.84 51.1295 157.88 51.1879 158.158 51.274V51.517H156.166V51.274C156.453 51.2064 156.493 51.1203 156.493 50.8865V45.1354C156.493 44.8832 156.435 44.8063 156.166 44.7478V44.5049H158.485V44.7478C158.369 44.7663 158.311 44.8247 158.311 44.9508C158.311 45.0769 158.387 45.1846 158.476 45.2615L162.178 49.1919V45.1354C162.178 44.9016 162.178 44.8463 161.851 44.7478V44.5049H163.834V44.7478C163.547 44.834 163.516 44.9139 163.516 45.1354V50.8865C163.516 51.1295 163.574 51.2156 163.834 51.274V51.517H163.831Z" fill="white"/>
<path d="M172.998 44.7478C172.632 44.8555 172.296 45.1169 172.076 45.4152L169.892 48.949V50.8773C169.892 51.148 169.959 51.2064 170.209 51.274V51.517H167.9V51.274C168.141 51.2064 168.218 51.1387 168.218 50.8773V49.1058L166.073 45.4152C165.841 45.0861 165.514 44.834 165.102 44.7478V44.5049H168.016V44.7478C167.68 44.8063 167.631 45.0492 167.796 45.2799L169.161 47.6911L170.613 45.2799C170.787 45.0369 170.68 44.7971 170.402 44.7478V44.5049H172.998V44.7478Z" fill="white"/>
<path d="M85.5015 37.9367H78.9793C78.5364 37.9367 78.3714 37.8291 78.1331 37.5092C76.679 35.5501 75.2035 33.6095 73.7433 31.6535C72.9582 30.6016 72.2036 29.5283 71.4216 28.4765C71.2688 28.2704 71.2872 28.1812 71.4888 28.0367C72.9673 26.9849 73.3767 26.5143 74.287 24.8689C74.9286 25.7054 75.5548 26.5266 76.1872 27.3416C77.7665 29.3837 79.3337 31.4382 80.9375 33.4618C82.1747 35.0211 83.6685 36.3251 85.1563 37.6322C85.2387 37.703 85.3182 37.7768 85.5015 37.9398V37.9367ZM75.0844 12.0533C75.622 12.6223 76.1016 13.1482 76.4621 13.7725C76.9539 14.6306 76.9265 15.0888 76.3338 15.8546C75.344 17.131 74.3268 18.3919 73.2362 19.5821C72.0387 20.8892 70.9267 22.2855 69.4451 23.2973C69.2526 23.4296 69.329 23.5434 69.3962 23.6971C69.5978 24.1554 69.6131 24.6413 69.3993 25.0842C69.2496 25.3917 69.3718 25.4194 69.6101 25.4686C70.8595 25.7239 71.8615 25.2011 72.781 24.4445C73.392 23.9401 73.5264 23.8171 73.2942 23.4019C73.224 23.2789 73.1476 23.1743 72.9582 22.8944C72.7688 22.6146 72.8054 22.5069 73.001 22.2978C73.6944 21.5597 74.3848 20.8154 75.0508 20.0496C77.7574 16.9434 80.797 14.2431 84.4689 12.3301C84.5911 12.2655 84.7133 12.2009 84.7744 12.0533H75.0844ZM60.1797 12.0533C60.8701 12.7207 61.4841 13.2804 62.0584 13.8832C62.645 14.5014 63.1276 15.2057 63.537 15.9807C64.2243 14.9104 65.1897 14.5598 66.3352 14.9258C67.2425 15.218 67.8535 16.196 67.8199 17.294C67.7894 18.2566 67.4319 19.0654 66.6316 19.7697C67.0715 19.6252 67.3128 19.3884 67.5236 19.1147C68.0399 18.4503 68.1498 17.6599 68.1315 16.8634C68.1101 15.9223 68.4736 15.138 68.9441 14.3784C69.5092 13.465 70.2882 12.7576 71.2047 12.0533H60.1827H60.1797ZM62.3303 37.2693C61.3772 36.3036 61.4597 35.0949 62.5533 34.2953C63.317 33.7356 64.2213 33.4865 65.1041 33.2004C66.0359 32.896 66.9462 32.5453 67.7405 31.9518C68.3362 31.5058 68.8127 30.9584 68.9319 30.1895C69.0693 29.2976 68.7089 28.6056 67.9971 28.0982C67.2273 27.5538 66.3841 27.4708 65.5288 27.8521C64.652 28.2397 64.261 29.1746 64.5665 30.0234C64.8414 30.7831 65.874 31.0722 66.4941 30.5617C66.7293 30.3679 66.8179 30.128 66.7049 29.8451C66.6193 29.6329 66.4788 29.6144 66.0817 29.719C66.433 29.7682 66.5521 29.8358 66.5246 29.9958C66.4819 30.2356 66.2955 30.3187 66.0817 30.3617C65.4982 30.4755 65.0889 30.1065 65.1347 29.5068C65.1805 28.9255 65.6968 28.5072 66.3658 28.5072C67.0195 28.5072 67.6824 28.9193 67.8902 29.4483C68.0857 29.9496 67.9085 30.4386 67.3372 30.943C66.9676 31.269 66.5521 31.5304 66.1 31.7242C65.2019 32.1086 64.2915 32.4623 63.3965 32.856C62.6511 33.1851 61.9912 33.6433 61.5177 34.3291C61.0076 35.0673 60.9862 36.0084 61.4994 36.7373C61.7652 37.1155 62.0584 37.4846 62.6755 37.6322C62.5014 37.4446 62.4189 37.3523 62.3334 37.2662L62.3303 37.2693ZM72.8818 24.9581C71.6599 26.1083 70.331 26.8003 68.605 26.0714C68.0643 25.8438 67.493 25.6655 66.8912 25.5855C64.371 25.2564 62.5197 27.2032 63.0482 29.6482C63.2834 30.7339 64.151 31.4412 65.1927 31.3644C64.9422 31.2444 64.707 31.1614 64.5054 31.0261C63.7966 30.5524 63.5889 29.8358 63.65 29.0362C63.7264 28.0121 64.1816 27.2186 65.1744 26.8218C66.2344 26.3974 67.2548 26.6619 68.2598 27.0341C69.7567 27.5876 71.1039 27.3447 72.3197 26.3144C73.1934 25.5763 73.7677 24.6628 73.9418 23.5126C73.6241 24.0201 73.3248 24.546 72.8849 24.9581H72.8818ZM63.8272 25.3487C64.3251 24.1923 65.1133 23.3342 66.3077 22.8852C66.6774 22.7468 67.0409 22.593 67.3922 22.4177C68.6569 21.7903 69.2038 20.4033 68.7119 19.0839C68.6447 18.9055 68.5836 18.7118 68.3331 18.5826C68.3728 18.7025 68.3912 18.7579 68.4095 18.8163C68.7272 19.9389 68.1315 21.3505 67.1448 21.6335C65.987 21.9687 64.8536 22.3316 63.9249 23.162C64.093 22.6607 64.3465 22.2394 64.7589 21.9195C65.2966 21.4982 65.8984 21.1845 66.488 20.8492C66.8576 20.6401 67.2486 20.4433 67.5144 19.9543C66.7079 20.4802 65.8495 20.5909 65.0736 20.923C63.7692 21.4828 62.923 22.3808 62.8191 23.8694C62.7519 24.832 63.0146 25.7516 63.2468 26.6865C63.4392 26.2406 63.6347 25.7946 63.8272 25.3487ZM68.3912 34.6828C68.1743 35.0611 67.8474 35.341 67.5144 35.6085C67.1448 35.9069 66.7507 36.1744 66.4483 36.5466C66.2192 36.8295 65.9961 37.1278 66.155 37.6384C66.3139 37.0817 66.6743 36.8418 67.0684 36.6265C67.4716 36.4112 67.8718 36.1929 68.2598 35.9499C69.2954 35.3071 69.7017 34.3968 69.3993 33.385C69.2435 32.8621 68.9227 32.4223 68.6081 31.9856C68.437 31.7488 68.3545 31.9026 68.2812 32.0533C68.0551 32.5146 67.7741 32.9421 67.3708 33.2527C66.824 33.6771 66.2436 34.0616 65.6693 34.4522C65.0675 34.8643 64.4779 35.2918 64.0716 35.9161C63.6714 36.5281 63.6714 37.1678 64.093 37.703C63.9341 36.7772 64.3771 36.2083 65.0797 35.7869C65.3638 35.6178 65.654 35.4578 65.9473 35.3041C66.8118 34.8489 67.6947 34.4214 68.4217 33.6833C68.6111 34.0585 68.5653 34.3722 68.3881 34.6797L68.3912 34.6828ZM64.594 17.4231C64.4229 17.1556 64.5054 16.9064 64.6887 16.6819C64.9392 16.3713 65.3516 16.3129 65.7151 16.5282C66.1214 16.765 66.2986 17.1894 66.1489 17.623C65.9992 18.0536 65.7151 18.3919 65.373 18.6841C65.0125 18.9947 64.649 19.3053 64.374 19.6959C64.0716 20.1265 63.7692 20.5694 63.8913 21.166C64.2732 20.351 65.0064 19.9573 65.709 19.5114C66.4177 19.0624 66.9798 18.475 67.1845 17.6138C67.3769 16.808 66.9157 15.9315 66.1153 15.6178C65.2538 15.2795 64.3985 15.5717 64.0013 16.3375C63.7355 16.8511 63.8547 17.4508 64.2793 17.7461C64.6612 18.0106 65.0522 17.9275 65.2569 17.4816C64.9911 17.6507 64.7589 17.6876 64.5909 17.4293L64.594 17.4231ZM65.2202 25.1149C65.7915 24.7459 66.378 24.4045 67.0226 24.1769C67.2456 24.1 67.4778 24.0293 67.713 24.1369C67.8902 24.2169 67.9421 24.3584 67.8566 24.5275C67.7588 24.7182 67.6122 24.7028 67.4625 24.589C67.4105 24.5491 67.4319 24.423 67.2914 24.4568C67.1081 24.7151 67.2456 24.9181 67.4289 25.1088C67.658 25.3487 67.9329 25.3518 68.217 25.2503C68.663 25.0934 68.9044 24.6505 68.8402 24.14C68.7669 23.5895 68.324 23.1405 67.7863 23.0759C66.6254 22.9344 65.0094 24.1523 64.7711 25.3825C64.9361 25.2841 65.0827 25.2072 65.2233 25.118L65.2202 25.1149ZM62.813 34.8673C62.2326 35.547 62.2662 36.4943 62.8894 37.094C62.9749 37.174 63.0452 37.3308 63.1918 37.2447C63.3048 37.1801 63.262 37.0387 63.2376 36.9372C63.0329 36.0791 63.4514 35.4855 64.038 34.9412C64.4993 34.5106 65.04 34.203 65.541 33.8186C64.487 33.8032 63.5278 34.0308 62.813 34.8673ZM68.8586 36.9894C69.0113 36.9833 69.2282 36.9802 69.2343 37.1801C69.2435 37.3923 69.0541 37.4538 68.8616 37.42C68.8005 37.4077 68.7455 37.3739 68.6936 37.4354C68.9227 37.9613 69.4543 38.0997 69.8544 37.7368C70.2821 37.3493 70.163 36.5927 69.6437 36.2759C68.7333 35.7162 67.1875 36.6696 67.27 37.6353C67.7649 37.257 68.269 37.014 68.8555 36.9894H68.8586ZM65.1072 36.5035C64.8414 36.7188 64.5848 36.9648 64.4932 37.3216C64.3618 37.8321 64.4412 37.9398 64.9544 37.9398C65.1897 37.9398 65.4249 37.9398 65.6662 37.9398C65.5165 36.8172 66.3841 36.2913 67.0531 35.5194C66.2558 35.7531 65.6479 36.0699 65.1072 36.5035ZM62.3945 37.9398C62.0096 37.7245 61.7193 37.5369 61.4902 37.2724C61.3986 37.1678 61.3161 37.1617 61.2061 37.2478C60.9251 37.4661 60.641 37.6784 60.2927 37.9398H62.3945ZM71.498 37.9398C71.1253 37.663 70.8198 37.4354 70.4288 37.1432C70.5051 37.4969 70.3615 37.703 70.3066 37.9398H71.498ZM70.7434 6.093C70.9542 6.2683 70.8931 6.57585 70.8748 6.64967C70.8748 6.65889 70.8717 6.66504 70.8717 6.66504L70.0927 9.0178C69.5795 8.43038 69.7109 7.83066 70.3066 7.92907C70.3921 7.47697 70.1233 7.06793 69.9522 6.8957C69.7811 6.72348 69.9736 6.76653 70.3799 6.18219C70.7556 5.63783 70.3066 4.47221 70.3066 4.47221C70.3066 4.47221 69.8575 4.89356 69.6101 5.36718C69.3107 5.94538 69.439 6.14221 69.4695 6.40363L68.6966 5.37333L67.6733 5.89924C67.2364 5.54864 66.5491 5.87156 66.5216 5.88387C67.3342 4.70903 66.1764 4.06932 65.8159 3.12207C65.4554 4.06932 64.2976 4.70903 65.1102 5.88387C65.0827 5.87156 64.3923 5.54864 63.9586 5.89924L62.9352 5.37333L62.1623 6.40363C62.1928 6.14528 62.3242 5.94538 62.0218 5.36718C61.7743 4.89356 61.3253 4.47221 61.3253 4.47221C61.3253 4.47221 60.8731 5.63475 61.2519 6.18219C61.6582 6.76653 61.8507 6.72348 61.6796 6.8957C61.5086 7.06793 61.2397 7.47697 61.3253 7.92907C61.924 7.83066 62.0554 8.43038 61.5391 9.0178L60.7601 6.66504C60.7601 6.66504 60.7601 6.65889 60.7571 6.64967C60.7387 6.57585 60.6746 6.2683 60.8884 6.093C60.5738 6.12991 60.4241 6.25293 60.4241 6.25293L61.3802 9.30689C62.8832 9.02395 65.0461 8.98089 65.8159 8.98089C66.5857 8.98089 68.7486 9.02395 70.2516 9.30689L71.2077 6.25293C71.2077 6.25293 71.0581 6.12991 70.7434 6.093ZM61.8171 6.40978C61.5208 6.12068 61.3375 5.78853 61.5544 5.54864C61.8385 5.63168 61.9362 5.93 61.8171 6.40978ZM65.8159 4.25385C66.4055 4.69057 66.4391 5.26569 65.8159 6.57893C65.1927 5.26877 65.2263 4.69057 65.8159 4.25385ZM64.8353 8.51957L63.6439 7.80605L62.8466 8.83942C62.0981 8.53802 62.0768 7.47697 62.9321 7.59077C62.923 7.02795 62.3578 6.80959 62.2295 6.76961L63.0146 5.72087L63.7722 6.11145C63.7569 6.13606 63.7447 6.16374 63.7325 6.19142C63.427 6.86803 63.9524 7.45545 64.5084 7.55079C64.1877 6.49281 65.0797 6.52049 65.3332 6.83419C65.5868 7.14482 65.5288 7.37856 65.3699 7.65535C65.2508 7.86449 64.8322 8.52264 64.8322 8.52264L64.8353 8.51957ZM65.8159 8.75023L65.4707 8.34734L65.8159 7.81835L66.1611 8.34734L65.8159 8.75023ZM68.7852 8.84249L67.9879 7.80913L66.7965 8.52264C66.7965 8.52264 66.378 7.86449 66.2589 7.65535C66.1 7.37856 66.042 7.14482 66.2955 6.83419C66.5491 6.52049 67.4411 6.49281 67.1203 7.55079C67.6733 7.45545 68.2018 6.86803 67.8963 6.19142C67.8841 6.16374 67.8688 6.13606 67.8566 6.11145L68.6142 5.72087L69.3993 6.76961C69.271 6.81267 68.7089 7.02795 68.6966 7.59077C69.552 7.47697 69.5306 8.53802 68.7822 8.83942L68.7852 8.84249ZM70.0774 5.54556C70.2974 5.78853 70.111 6.1176 69.8147 6.4067C69.6956 5.92692 69.7933 5.62552 70.0774 5.54556ZM70.0774 9.99273L69.8208 10.7308H61.814L61.5574 9.99273C63.0115 9.67288 64.8384 9.67288 65.819 9.67288C66.7996 9.67288 68.6264 9.67288 70.0805 9.99273H70.0774Z" fill="white"/>
<path d="M92.909 37.9973H87.5508V37.4037C88.1404 37.2376 88.3542 37.0962 88.3542 36.4534V22.3369C88.3542 21.6941 88.1648 21.528 87.5508 21.3865V20.793H92.909V21.3865C92.295 21.528 92.0842 21.7187 92.0842 22.3369V36.4534C92.0842 37.0962 92.298 37.2376 92.909 37.4037V37.9973Z" fill="white"/>
<path d="M118.229 37.9973H113.106V37.4037C113.885 37.3084 113.555 36.6441 113.082 36.1212L103.523 26.1413V36.4534C103.523 37.047 103.618 37.1915 104.302 37.4037V37.9973H99.4141V37.4037C100.123 37.2376 100.217 37.0224 100.217 36.4534V22.3369C100.217 21.7187 100.077 21.528 99.4141 21.3865V20.793H105.102V21.3865C104.818 21.4327 104.678 21.5772 104.678 21.8848C104.678 22.1923 104.867 22.4537 105.078 22.6444L114.166 32.2923V22.3369C114.166 21.7679 114.166 21.6234 113.363 21.3865V20.793H118.226V21.3865C117.517 21.6018 117.447 21.7894 117.447 22.3369V36.4534C117.447 37.047 117.587 37.2623 118.226 37.4037V37.9973H118.229Z" fill="white"/>
<path d="M127.07 34.1469L126.386 36.0476C126.007 36.8318 126.245 37.2593 126.951 37.4008V37.9944H121.098V37.4008C121.971 37.1886 122.372 36.4259 122.726 35.7123L128.109 22.6907C128.344 22.1679 128.393 21.645 127.424 21.3836V20.79H135.804V21.3836C134.765 21.645 134.884 22.214 135.119 22.7368L140.478 35.7123C140.832 36.4259 141.232 37.1855 142.106 37.4008V37.9944H136.253V37.4008C136.962 37.2593 137.267 36.8318 136.891 36.0476L136.158 34.1469H127.07ZM132.144 23.7394H131.06L128.063 31.5327H135.168L132.147 23.7394H132.144Z" fill="white"/>
<path d="M163.424 35.8569L162.953 36.1675C162.694 35.9768 162.458 35.8108 162.269 35.9307C159.862 37.4746 156.816 38.5203 153.605 38.5203C147.868 38.5203 143.549 34.6482 143.549 29.4414C143.549 24.2346 147.728 20.3164 154.03 20.3164C157.335 20.3164 160.546 21.6942 161.276 21.931C161.56 22.0264 162.031 22.051 162.29 21.7896L162.785 22.1217L160.259 26.2091L159.74 25.8984L159.859 25.5909C159.859 24.6406 156.792 23.3335 153.935 23.3335C150.04 23.3335 147.349 25.8523 147.349 29.2507C147.349 32.886 150.04 35.5247 154.03 35.5247C156.816 35.5247 159.743 33.9101 160.403 33.0766C160.592 32.8398 160.497 32.4831 160.378 32.1971L160.873 31.8895L163.421 35.8569H163.424Z" fill="white"/>
<path d="M172.999 37.9973H167.641V37.4037C168.23 37.2376 168.444 37.0962 168.444 36.4534V22.3369C168.444 21.6941 168.255 21.528 167.641 21.3865V20.793H172.999V21.3865C172.385 21.528 172.174 21.7187 172.174 22.3369V36.4534C172.174 37.0962 172.388 37.2376 172.999 37.4037V37.9973Z" fill="white"/>
<path d="M22.1394 0L16.5918 3.1124V9.30338L19.2129 10.7304V37.0228L22.1394 35.2083V0Z" fill="white"/>
<path d="M13.8484 8.1748L8.30078 11.2872V17.4813L10.9219 18.9052V45.1976L13.8484 43.3862V8.1748Z" fill="white"/>
<path d="M5.54763 16.2725L0 19.3849V54.5993L5.54763 51.4807V16.2725Z" fill="white"/>
<path d="M26.25 0L31.7976 3.1124V9.30338L29.1766 10.7304V37.0228L26.25 35.2114V0ZM34.5409 43.386L37.4675 45.1975V18.9051L40.0885 17.478V11.2871L34.5409 8.17467V43.383V43.386ZM42.841 51.4838L48.3886 54.5993V19.3849L42.841 16.2725V51.4807V51.4838Z" fill="white"/>
</g>
<defs>
<clipPath id="clip0_316_2573">
<rect width="173" height="54.5993" fill="white"/>
</clipPath>
</defs>
</svg>
