<svg width="158" height="50" viewBox="0 0 158 50" fill="none" xmlns="http://www.w3.org/2000/svg">
<g clip-path="url(#clip0_289_1910)">
<path d="M60.5451 44.5153H59.3244C59.0875 44.5153 58.9984 44.49 58.9203 44.7173H58.7197V43.2247H58.9315C58.9761 43.4379 59.0987 43.4379 59.3272 43.4379H62.2674V43.6596C62.0389 43.6848 61.8549 43.7578 61.8549 44.0664V45.6039C61.8549 45.8508 61.9525 45.9658 62.1615 45.9658V46.2128C61.2753 46.8665 59.8707 47.1919 58.7057 47.1919C56.7493 47.1919 55.002 45.963 55.002 43.7998C55.002 41.6366 56.8608 40.4246 58.8451 40.4246C59.6784 40.4246 60.5925 40.6715 61.3728 40.9268C61.5484 40.9885 61.6459 40.9352 61.6961 40.8566L61.9162 40.9548L61.1275 42.5008L60.9269 42.4026C60.9631 42.209 60.7764 42.0407 60.5757 41.9172C60.0239 41.6002 59.3662 41.502 58.7503 41.502C57.4154 41.502 56.4177 42.4194 56.4177 43.8167C56.4177 45.2139 57.6467 46.1033 58.9092 46.1033C59.5139 46.1033 60.0852 45.963 60.5507 45.6881V44.5125L60.5451 44.5153Z" fill="white"/>
<path d="M70.5143 46.9982H68.1817V46.7766C68.296 46.7597 68.4102 46.7064 68.4102 46.5746C68.4102 46.4764 68.3406 46.3613 68.2709 46.2744L66.9722 44.5152H65.3224V46.4231C65.3224 46.6615 65.4004 46.7233 65.6289 46.7766V46.9982H63.6279V46.7766C63.8565 46.7233 63.9261 46.6531 63.9261 46.4231V41.1764C63.9261 40.9379 63.8565 40.8762 63.6279 40.8228V40.6012H67.5156C68.7084 40.6012 70.1493 40.9547 70.1493 42.4474C70.1493 43.5416 69.4386 44.1616 68.4214 44.3917L69.7284 46.1677C69.9486 46.4679 70.1855 46.67 70.5171 46.7766V46.9982H70.5143ZM67.1534 41.6982H65.3196V43.4574H67.1979C67.8389 43.4574 68.8116 43.4209 68.8116 42.5484C68.8116 41.6758 67.7665 41.701 67.1534 41.701V41.6982Z" fill="white"/>
<path d="M75.4631 47.2085C73.4705 47.2085 71.6562 45.8842 71.6562 43.7996C71.6562 41.7149 73.5346 40.3906 75.5607 40.3906C77.5868 40.3906 79.3063 41.743 79.3063 43.7996C79.3063 45.8562 77.4725 47.2085 75.4631 47.2085ZM75.4631 41.4484C74.0864 41.4484 72.98 42.4023 72.98 43.7968C72.98 45.1912 74.0864 46.1451 75.4631 46.1451C76.8399 46.1451 77.9825 45.1912 77.9825 43.7968C77.9825 42.4023 76.8594 41.4484 75.4631 41.4484Z" fill="white"/>
<path d="M87.7366 40.8227C87.508 40.876 87.4384 40.9378 87.4384 41.1762V44.6666C87.4384 46.5127 86.527 47.2113 84.2 47.2113C81.8729 47.2113 80.9978 46.4594 80.9978 44.6666V41.1762C80.9978 40.9378 80.9449 40.8676 80.708 40.8227V40.6011H82.7006V40.8227C82.4721 40.8676 82.4108 40.9378 82.4108 41.1762V44.5768C82.4108 45.7524 82.9375 46.1592 84.2083 46.1592C85.4792 46.1592 86.0254 45.6822 86.0254 44.5431V41.1762C86.0254 40.9378 85.9641 40.8676 85.7356 40.8227V40.6011H87.7366V40.8227Z" fill="white"/>
<path d="M93.1516 44.543H90.7911V46.4256C90.7911 46.6725 90.8608 46.7258 91.0893 46.7791V47.0008H89.0967V46.7791C89.2973 46.7342 89.3949 46.709 89.3949 46.4172V41.1789C89.3949 40.9573 89.3698 40.8787 89.0967 40.8254V40.6038H92.9844C94.6426 40.6038 95.5901 41.3641 95.5901 42.5369C95.5901 43.7097 94.651 44.543 93.1516 44.543ZM92.6082 41.6727H90.7911V43.4572H92.6611C93.748 43.4572 94.258 43.1205 94.258 42.5481C94.258 41.9758 93.8009 41.6727 92.6082 41.6727Z" fill="white"/>
<path d="M107.18 46.2014L107.005 46.3164C106.907 46.2463 106.821 46.1846 106.751 46.2295C105.856 46.8046 104.725 47.1918 103.532 47.1918C101.4 47.1918 99.7949 45.7525 99.7949 43.8165C99.7949 41.8806 101.347 40.4244 103.691 40.4244C104.92 40.4244 106.113 40.9379 106.383 41.0249C106.489 41.0613 106.665 41.0698 106.759 40.9716L106.943 41.095L106.004 42.6129L105.812 42.4979L105.856 42.3828C105.856 42.0293 104.717 41.5439 103.655 41.5439C102.208 41.5439 101.208 42.481 101.208 43.7436C101.208 45.096 102.208 46.0752 103.691 46.0752C104.725 46.0752 105.815 45.4747 106.06 45.1661C106.13 45.0791 106.096 44.9444 106.052 44.8378L106.235 44.7228L107.183 46.1986L107.18 46.2014Z" fill="white"/>
<path d="M112.148 47.2086C110.155 47.2086 108.341 45.8843 108.341 43.7997C108.341 41.715 110.219 40.3907 112.245 40.3907C114.271 40.3907 115.991 41.7431 115.991 43.7997C115.991 45.8563 114.157 47.2086 112.148 47.2086ZM112.148 41.4485C110.771 41.4485 109.665 42.4024 109.665 43.7969C109.665 45.1913 110.771 46.1453 112.148 46.1453C113.524 46.1453 114.667 45.1913 114.667 43.7969C114.667 42.4024 113.544 41.4485 112.148 41.4485Z" fill="white"/>
<path d="M125.622 46.9982H123.665V46.7766C123.894 46.7233 123.963 46.6531 123.963 46.4231V42.5175L121.419 46.8271L118.997 42.5175V46.4231C118.997 46.6615 119.058 46.7148 119.287 46.7766V46.9982H117.437V46.7766C117.657 46.7233 117.735 46.6615 117.735 46.4231V41.1764C117.735 40.9379 117.657 40.8762 117.437 40.8228V40.6012H119.875V40.8228C119.683 40.8481 119.621 41.0529 119.716 41.2297L121.505 44.4619L123.364 41.2914C123.479 41.0894 123.442 40.893 123.233 40.8228V40.6012H125.619V40.8228C125.337 40.9014 125.312 40.9744 125.312 41.1764V46.4231C125.312 46.6531 125.39 46.7233 125.619 46.7766V46.9982H125.622Z" fill="white"/>
<path d="M131.081 44.5429H128.721V46.4255C128.721 46.6724 128.79 46.7257 129.019 46.779V47.0007H127.026V46.779C127.227 46.7341 127.325 46.7089 127.325 46.4171V41.1788C127.325 40.9572 127.299 40.8786 127.026 40.8253V40.6036H130.914C132.572 40.6036 133.52 41.364 133.52 42.5368C133.52 43.7096 132.581 44.5429 131.081 44.5429ZM130.538 41.6726H128.721V43.4571H130.591C131.678 43.4571 132.188 43.1204 132.188 42.548C132.188 41.9756 131.731 41.6726 130.538 41.6726Z" fill="white"/>
<path d="M135.738 45.5672L135.484 46.2742C135.345 46.566 135.431 46.726 135.696 46.7765V46.9981H133.52V46.7765C133.846 46.6979 133.993 46.4145 134.124 46.148L136.125 41.3081C136.212 41.1145 136.231 40.9181 135.872 40.8227V40.6011H138.987V40.8227C138.6 40.9209 138.645 41.1314 138.734 41.3249L140.726 46.148C140.857 46.4117 141.008 46.6951 141.331 46.7765V46.9981H139.155V46.7765C139.417 46.7231 139.531 46.5632 139.392 46.2742L139.118 45.5672H135.741H135.738ZM137.625 41.6981H137.221L136.106 44.5964H138.748L137.625 41.6981Z" fill="white"/>
<path d="M149.461 46.9981H147.558V46.7765C147.847 46.74 147.725 46.4931 147.549 46.2995L143.996 42.5903V46.4229C143.996 46.6446 144.032 46.6979 144.286 46.7765V46.9981H142.469V46.7765C142.731 46.7147 142.767 46.6362 142.767 46.4229V41.1762C142.767 40.9462 142.714 40.876 142.469 40.8227V40.6011H144.584V40.8227C144.478 40.8396 144.425 40.8929 144.425 41.0079C144.425 41.1229 144.495 41.2211 144.576 41.2913L147.953 44.877V41.1762C147.953 40.963 147.953 40.9125 147.655 40.8227V40.6011H149.464V40.8227C149.202 40.9013 149.174 40.9742 149.174 41.1762V46.4229C149.174 46.6446 149.227 46.7231 149.464 46.7765V46.9981H149.461Z" fill="white"/>
<path d="M157.824 40.8228C157.49 40.921 157.183 41.1595 156.983 41.4317L154.99 44.6555V46.4146C154.99 46.6615 155.051 46.7148 155.28 46.7766V46.9982H153.173V46.7766C153.393 46.7148 153.463 46.6531 153.463 46.4146V44.7985L151.506 41.4317C151.295 41.1315 150.996 40.9014 150.62 40.8228V40.6012H153.279V40.8228C152.972 40.8762 152.928 41.0978 153.078 41.3082L154.324 43.5079L155.648 41.3082C155.807 41.0866 155.709 40.8677 155.455 40.8228V40.6012H157.824V40.8228Z" fill="white"/>
<path d="M78.0019 34.6084H72.0519C71.6478 34.6084 71.4973 34.5102 71.2799 34.2184C69.9534 32.4311 68.6073 30.6607 67.2752 28.8763C66.5589 27.9167 65.8706 26.9375 65.1571 25.978C65.0178 25.79 65.0345 25.7086 65.2184 25.5768C66.5673 24.6172 66.9407 24.1879 67.7712 22.6869C68.3565 23.45 68.9278 24.1992 69.5047 24.9427C70.9455 26.8057 72.3752 28.6799 73.8383 30.526C74.967 31.9485 76.3298 33.1382 77.687 34.3306C77.7623 34.3951 77.8347 34.4625 78.0019 34.6112V34.6084ZM68.4986 10.9955C68.9891 11.5145 69.4267 11.9943 69.7555 12.5639C70.2042 13.3466 70.1791 13.7647 69.6385 14.4633C68.7355 15.6277 67.8075 16.778 66.8126 17.8638C65.7201 19.0563 64.7057 20.3301 63.354 21.2532C63.1784 21.3738 63.2481 21.4776 63.3094 21.6179C63.4934 22.036 63.5073 22.4793 63.3122 22.8833C63.1757 23.1638 63.2871 23.1891 63.5045 23.234C64.6443 23.4669 65.5584 22.9899 66.3973 22.2997C66.9547 21.8396 67.0773 21.7273 66.8655 21.3485C66.8014 21.2363 66.7317 21.1409 66.5589 20.8856C66.3862 20.6303 66.4196 20.5321 66.598 20.3413C67.2306 19.6679 67.8604 18.9889 68.468 18.2903C70.9371 15.4565 73.7101 12.9931 77.06 11.248C77.1714 11.1891 77.2829 11.1301 77.3386 10.9955H68.4986ZM54.9014 10.9955C55.5312 11.6043 56.0914 12.1149 56.6153 12.6649C57.1504 13.2288 57.5907 13.8713 57.9642 14.5784C58.5912 13.602 59.4719 13.2821 60.517 13.616C61.3447 13.8825 61.902 14.7748 61.8714 15.7764C61.8435 16.6546 61.5175 17.3925 60.7873 18.035C61.1886 17.9031 61.4088 17.6871 61.6011 17.4374C62.072 16.8313 62.1724 16.1103 62.1557 15.3836C62.1361 14.525 62.4678 13.8096 62.897 13.1166C63.4125 12.2833 64.1232 11.638 64.9593 10.9955H54.9042H54.9014ZM56.8633 33.9995C55.9938 33.1185 56.0691 32.0159 57.0668 31.2864C57.7635 30.7758 58.5884 30.5485 59.3938 30.2876C60.2438 30.0098 61.0743 29.6899 61.7989 29.1484C62.3424 28.7416 62.7771 28.2422 62.8858 27.5408C63.0112 26.7271 62.6824 26.0958 62.033 25.6329C61.3307 25.1363 60.5615 25.0605 59.7812 25.4084C58.9814 25.7619 58.6247 26.6149 58.9033 27.3893C59.1542 28.0823 60.0961 28.346 60.6619 27.8803C60.8765 27.7035 60.9573 27.4847 60.8542 27.2265C60.7761 27.0329 60.6479 27.0161 60.2856 27.1115C60.6061 27.1564 60.7148 27.2181 60.6897 27.364C60.6507 27.5829 60.4807 27.6586 60.2856 27.6979C59.7534 27.8017 59.3799 27.465 59.4217 26.9179C59.4635 26.3876 59.9345 26.006 60.5448 26.006C61.1412 26.006 61.746 26.382 61.9355 26.8646C62.1138 27.3219 61.9522 27.768 61.4311 28.2282C61.0938 28.5256 60.7148 28.7641 60.3024 28.9408C59.483 29.2915 58.6525 29.6142 57.836 29.9733C57.156 30.2735 56.554 30.6916 56.122 31.3173C55.6566 31.9906 55.6371 32.8492 56.1053 33.5141C56.3478 33.8592 56.6153 34.1959 57.1783 34.3306C57.0194 34.1595 56.9442 34.0753 56.8661 33.9967L56.8633 33.9995ZM66.4893 22.7682C65.3745 23.8176 64.1622 24.4489 62.5876 23.7839C62.0943 23.5763 61.5732 23.4136 61.0242 23.3406C58.725 23.0404 57.0361 24.8164 57.5183 27.047C57.7329 28.0374 58.5243 28.6827 59.4747 28.6126C59.2461 28.5031 59.0315 28.4274 58.8476 28.3039C58.201 27.8718 58.0115 27.2181 58.0673 26.4886C58.137 25.5543 58.5522 24.8304 59.4579 24.4685C60.425 24.0813 61.3558 24.3226 62.2727 24.6621C63.6383 25.1671 64.8673 24.9455 65.9765 24.0056C66.7735 23.3322 67.2975 22.4989 67.4563 21.4496C67.1665 21.9125 66.8934 22.3923 66.4921 22.7682H66.4893ZM58.2289 23.1246C58.6832 22.0696 59.4022 21.2868 60.4919 20.8772C60.8291 20.7509 61.1607 20.6106 61.4812 20.4507C62.635 19.8784 63.1338 18.613 62.6852 17.4093C62.6238 17.2466 62.5681 17.0698 62.3396 16.952C62.3758 17.0614 62.3925 17.1119 62.4093 17.1652C62.6991 18.1893 62.1557 19.4771 61.2555 19.7353C60.1993 20.0411 59.1653 20.3722 58.3181 21.1297C58.4714 20.6724 58.7027 20.288 59.0789 19.9962C59.5694 19.6118 60.1184 19.3256 60.6563 19.0198C60.9935 18.829 61.3502 18.6494 61.5927 18.2033C60.857 18.6831 60.0738 18.7841 59.366 19.0871C58.176 19.5978 57.404 20.4171 57.3092 21.775C57.2479 22.6532 57.4876 23.4921 57.6994 24.3451C57.875 23.9382 58.0533 23.5314 58.2289 23.1246ZM62.3925 31.6399C62.1947 31.985 61.8965 32.2403 61.5927 32.4844C61.2555 32.7566 60.896 33.0007 60.6201 33.3402C60.4111 33.5983 60.2076 33.8705 60.3525 34.3362C60.4974 33.8284 60.8263 33.6095 61.1858 33.4131C61.5537 33.2167 61.9188 33.0175 62.2727 32.7959C63.2175 32.2095 63.5881 31.379 63.3122 30.4559C63.1701 29.9789 62.8775 29.5777 62.5904 29.1793C62.4343 28.9633 62.3591 29.1035 62.2922 29.241C62.086 29.6619 61.8296 30.0519 61.4617 30.3353C60.9629 30.7224 60.4334 31.0732 59.9094 31.4295C59.3604 31.8055 58.8225 32.1954 58.4519 32.765C58.0868 33.3233 58.0868 33.9069 58.4714 34.3951C58.3265 33.5506 58.7306 33.0316 59.3715 32.6472C59.6307 32.4929 59.8955 32.347 60.163 32.2067C60.9517 31.7914 61.7571 31.4014 62.4204 30.7281C62.5932 31.0704 62.5514 31.3565 62.3897 31.6371L62.3925 31.6399ZM58.9284 15.8942C58.7724 15.6501 58.8476 15.4229 59.0148 15.2181C59.2433 14.9347 59.6196 14.8814 59.9512 15.0778C60.3219 15.2938 60.4835 15.681 60.347 16.0766C60.2104 16.4694 59.9512 16.778 59.6391 17.0446C59.3102 17.328 58.9786 17.6113 58.7278 17.9677C58.4519 18.3605 58.176 18.7645 58.2874 19.3088C58.6358 18.5653 59.3047 18.2061 59.9456 17.7993C60.5922 17.3897 61.105 16.8538 61.2917 16.0682C61.4673 15.3331 61.0465 14.5335 60.3163 14.2473C59.5304 13.9387 58.7501 14.2052 58.3878 14.9038C58.1453 15.3724 58.254 15.9195 58.6414 16.1888C58.9897 16.4301 59.3465 16.3544 59.5332 15.9475C59.2907 16.1019 59.0789 16.1355 58.9256 15.8998L58.9284 15.8942ZM59.4997 22.9113C60.0209 22.5746 60.556 22.2632 61.144 22.0556C61.3474 21.9854 61.5593 21.9209 61.7738 22.0191C61.9355 22.0921 61.9829 22.2211 61.9048 22.3754C61.8157 22.5494 61.6819 22.5354 61.5453 22.4316C61.4979 22.3951 61.5175 22.28 61.3893 22.3109C61.222 22.5466 61.3475 22.7318 61.5147 22.9057C61.7237 23.1246 61.9745 23.1274 62.2337 23.0348C62.6406 22.8917 62.8607 22.4877 62.8022 22.0219C62.7353 21.5197 62.3312 21.1101 61.8407 21.0511C60.7817 20.9221 59.3074 22.0331 59.0901 23.1554C59.2406 23.0656 59.3743 22.9955 59.5025 22.9141L59.4997 22.9113ZM57.3037 31.8083C56.7742 32.4283 56.8048 33.2925 57.3733 33.8396C57.4514 33.9125 57.5155 34.0556 57.6492 33.9771C57.7524 33.9182 57.7133 33.7891 57.691 33.6965C57.5043 32.9137 57.8861 32.3722 58.4212 31.8756C58.842 31.4828 59.3353 31.2022 59.7924 30.8515C58.8309 30.8375 57.9558 31.0451 57.3037 31.8083ZM62.8189 33.7442C62.9583 33.7386 63.1561 33.7358 63.1617 33.9182C63.1701 34.1118 62.9973 34.1679 62.8217 34.137C62.766 34.1258 62.7158 34.0949 62.6684 34.151C62.8775 34.6308 63.3624 34.7571 63.7275 34.426C64.1176 34.0725 64.0089 33.3823 63.5352 33.0933C62.7047 32.5826 61.2945 33.4524 61.3697 34.3334C61.8212 33.9883 62.2811 33.7666 62.8161 33.7442H62.8189ZM59.3966 33.3009C59.1542 33.4973 58.9201 33.7218 58.8365 34.0472C58.7166 34.513 58.7891 34.6112 59.2573 34.6112C59.4719 34.6112 59.6865 34.6112 59.9066 34.6112C59.7701 33.5871 60.5615 33.1073 61.1719 32.4031C60.4445 32.6163 59.8899 32.9053 59.3966 33.3009ZM56.9219 34.6112C56.5707 34.4148 56.306 34.2436 56.0969 34.0023C56.0133 33.9069 55.9381 33.9013 55.8378 33.9799C55.5814 34.1791 55.3222 34.3727 55.0045 34.6112H56.9219ZM65.2268 34.6112C64.8868 34.3587 64.6081 34.151 64.2514 33.8845C64.3211 34.2071 64.1901 34.3951 64.1399 34.6112H65.2268ZM64.5384 5.55798C64.7307 5.7179 64.675 5.99848 64.6583 6.06581C64.6583 6.07423 64.6555 6.07984 64.6555 6.07984L63.9448 8.22621C63.4766 7.69032 63.5965 7.14321 64.1399 7.23299C64.2179 6.82055 63.9727 6.44739 63.8166 6.29027C63.6606 6.13315 63.8361 6.17243 64.2068 5.63934C64.5496 5.14273 64.1399 4.07937 64.1399 4.07937C64.1399 4.07937 63.7302 4.46375 63.5045 4.89583C63.2314 5.4233 63.3484 5.60287 63.3763 5.84136L62.6712 4.90144L61.7376 5.38122C61.3391 5.06137 60.712 5.35597 60.687 5.36719C61.4283 4.29541 60.372 3.71182 60.0432 2.84766C59.7143 3.71182 58.6581 4.29541 59.3994 5.36719C59.3743 5.35597 58.7445 5.06137 58.3488 5.38122L57.4151 4.90144L56.7101 5.84136C56.7379 5.60568 56.8578 5.4233 56.5819 4.89583C56.3561 4.46375 55.9465 4.07937 55.9465 4.07937C55.9465 4.07937 55.534 5.13993 55.8796 5.63934C56.2502 6.17243 56.4258 6.13315 56.2697 6.29027C56.1137 6.44739 55.8684 6.82055 55.9465 7.23299C56.4927 7.14321 56.6125 7.69032 56.1415 8.22621L55.4309 6.07984C55.4309 6.07984 55.4309 6.07423 55.4281 6.06581C55.4114 5.99848 55.3528 5.7179 55.5479 5.55798C55.2609 5.59165 55.1243 5.70388 55.1243 5.70388L55.9966 8.48995C57.3678 8.23183 59.3409 8.19255 60.0432 8.19255C60.7455 8.19255 62.7186 8.23183 64.0898 8.48995L64.9621 5.70388C64.9621 5.70388 64.8255 5.59165 64.5384 5.55798ZM56.3951 5.84697C56.1248 5.58323 55.9576 5.28021 56.1555 5.06137C56.4147 5.13712 56.5038 5.40928 56.3951 5.84697ZM60.0432 3.88016C60.5811 4.27857 60.6117 4.80324 60.0432 6.00128C59.4747 4.80605 59.5053 4.27857 60.0432 3.88016ZM59.1486 7.77169L58.0617 7.12076L57.3343 8.06348C56.6515 7.78852 56.632 6.82055 57.4124 6.92436C57.404 6.41092 56.8884 6.21171 56.7714 6.17524L57.4876 5.21849L58.1788 5.57481C58.1648 5.59726 58.1537 5.62251 58.1425 5.64776C57.8638 6.26502 58.3432 6.80091 58.8504 6.88789C58.5578 5.92272 59.3715 5.94797 59.6029 6.23416C59.8342 6.51753 59.7812 6.73077 59.6363 6.98328C59.5276 7.17407 59.1458 7.77449 59.1458 7.77449L59.1486 7.77169ZM60.0432 7.98212L59.7283 7.61457L60.0432 7.13199L60.3581 7.61457L60.0432 7.98212ZM62.752 8.06629L62.0247 7.12357L60.9378 7.77449C60.9378 7.77449 60.556 7.17407 60.4473 6.98328C60.3024 6.73077 60.2494 6.51753 60.4807 6.23416C60.712 5.94797 61.5258 5.92272 61.2332 6.88789C61.7376 6.80091 62.2197 6.26502 61.9411 5.64776C61.9299 5.62251 61.916 5.59726 61.9048 5.57481L62.596 5.21849L63.3122 6.17524C63.1952 6.21452 62.6824 6.41092 62.6712 6.92436C63.4516 6.82055 63.432 7.78852 62.7493 8.06348L62.752 8.06629ZM63.9309 5.05856C64.1316 5.28021 63.9616 5.58042 63.6912 5.84416C63.5825 5.40647 63.6717 5.13151 63.9309 5.05856ZM63.9309 9.11563L63.6968 9.789H56.3924L56.1583 9.11563C57.4848 8.82383 59.1514 8.82383 60.046 8.82383C60.9406 8.82383 62.6071 8.82383 63.9337 9.11563H63.9309Z" fill="white"/>
<path d="M84.7593 34.6644H79.8711V34.1229C80.409 33.9714 80.604 33.8423 80.604 33.2559V20.3777C80.604 19.7913 80.4313 19.6398 79.8711 19.5107V18.9692H84.7593V19.5107C84.1991 19.6398 84.0068 19.8138 84.0068 20.3777V33.2559C84.0068 33.8423 84.2019 33.9714 84.7593 34.1229V34.6644Z" fill="white"/>
<path d="M107.86 34.6644H103.186V34.1229C103.897 34.0359 103.596 33.4299 103.164 32.9529L94.4437 23.8484V33.2559C94.4437 33.7974 94.5301 33.9293 95.1543 34.1229V34.6644H90.6953V34.1229C91.3419 33.9714 91.4283 33.775 91.4283 33.2559V20.3777C91.4283 19.8138 91.3001 19.6398 90.6953 19.5107V18.9692H95.8845V19.5107C95.6253 19.5528 95.4971 19.6847 95.4971 19.9653C95.4971 20.2458 95.6699 20.4843 95.8622 20.6583L104.153 29.4598V20.3777C104.153 19.8586 104.153 19.7268 103.42 19.5107V18.9692H107.857V19.5107C107.21 19.7071 107.146 19.8783 107.146 20.3777V33.2559C107.146 33.7974 107.275 33.9938 107.857 34.1229V34.6644H107.86Z" fill="white"/>
<path d="M115.923 31.1518L115.299 32.8857C114.953 33.6012 115.171 33.9912 115.814 34.1202V34.6617H110.475V34.1202C111.272 33.9266 111.637 33.2308 111.96 32.5799L116.871 20.7005C117.085 20.2235 117.13 19.7465 116.246 19.5081V18.9666H123.891V19.5081C122.943 19.7465 123.052 20.2656 123.266 20.7426L128.155 32.5799C128.478 33.2308 128.843 33.9238 129.64 34.1202V34.6617H124.3V34.1202C124.947 33.9912 125.226 33.6012 124.883 32.8857L124.214 31.1518H115.923ZM120.552 21.6572H119.563L116.829 28.7669H123.311L120.555 21.6572H120.552Z" fill="white"/>
<path d="M149.09 32.7115L148.66 32.9948C148.423 32.8209 148.209 32.6694 148.036 32.7788C145.84 34.1873 143.061 35.1412 140.132 35.1412C134.899 35.1412 130.958 31.6088 130.958 26.8587C130.958 22.1087 134.77 18.5342 140.52 18.5342C143.535 18.5342 146.464 19.7911 147.13 20.0072C147.39 20.0942 147.819 20.1166 148.056 19.8781L148.507 20.1811L146.202 23.9099L145.729 23.6266L145.837 23.346C145.837 22.479 143.039 21.2866 140.433 21.2866C136.88 21.2866 134.425 23.5845 134.425 26.6848C134.425 30.0011 136.88 32.4084 140.52 32.4084C143.061 32.4084 145.731 30.9354 146.333 30.1751C146.506 29.9591 146.42 29.6336 146.311 29.3727L146.762 29.0921L149.087 32.7115H149.09Z" fill="white"/>
<path d="M157.824 34.6644H152.936V34.1229C153.473 33.9714 153.669 33.8423 153.669 33.2559V20.3777C153.669 19.7913 153.496 19.6398 152.936 19.5107V18.9692H157.824V19.5107C157.264 19.6398 157.071 19.8138 157.071 20.3777V33.2559C157.071 33.8423 157.266 33.9714 157.824 34.1229V34.6644Z" fill="white"/>
<path d="M20.1967 -0.00012207L15.1357 2.83926V8.48717L17.5269 9.78902V33.7751L20.1967 32.1197V-0.00012207Z" fill="white"/>
<path d="M12.6323 7.45752L7.57129 10.2969V15.9476L9.96244 17.2467V41.2327L12.6323 39.5802V7.45752Z" fill="white"/>
<path d="M5.061 14.8451L0 17.6845V49.8099L5.061 46.9649V14.8451Z" fill="white"/>
<path d="M23.9473 -0.00012207L29.0083 2.83926V8.48717L26.6171 9.78902V33.7751L23.9473 32.1225V-0.00012207ZM31.5109 39.5801L34.1807 41.2327V17.2466L36.5719 15.9448V10.2969L31.5109 7.45747V39.5773V39.5801ZM39.0829 46.9676L44.1439 49.8098V17.6843L39.0829 14.8449V46.9648V46.9676Z" fill="white"/>
</g>
<defs>
<clipPath id="clip0_289_1910">
<rect width="157.825" height="49.8099" fill="white"/>
</clipPath>
</defs>
</svg>
