<?xml version="1.0" encoding="utf-8"?><!-- Generator: Adobe Illustrator 27.8.1, SVG Export Plug-In . SVG Version: 6.00 Build 0)  --><svg xmlns="http://www.w3.org/2000/svg" xmlns:xlink="http://www.w3.org/1999/xlink" version="1.1" x="0px" y="0px" viewBox="13.5 13.5 37 37" enable-background="new 0 0 64 64" xml:space="preserve">
<g id="pause-outline-bot_x5F_s1g1_x5F_s2g1_x5F_s3g1_x5F_s4g1_x5F_background">
	
		<path fill="#FF0000FF" stroke="#000000" stroke-width="2" stroke-linecap="round" stroke-linejoin="round" stroke-miterlimit="10" d="   M32,14.5L32,14.5c9.665,0,17.5,7.835,17.5,17.5v0c0,9.665-7.835,17.5-17.5,17.5h0c-9.665,0-17.5-7.835-17.5-17.5v0   C14.5,22.335,22.335,14.5,32,14.5z"/>
</g>
<g id="pause-outline-top_x5F_s1g1_x5F_s2g2_x5F_s3g1_x5F_s4g1">
	<g id="home-outline-first_x5F_s1g1_x5F_s2g1_x5F_s3g1_x5F_s4g1_1_">
	</g>
	
		<path fill="#E6E9EC" stroke="#000000FF" stroke-width="2" stroke-linecap="round" stroke-linejoin="round" stroke-miterlimit="10" d="   M37.069,25h2.112c0.866,0,1.569,0.702,1.569,1.569v10.862c0,0.866-0.702,1.569-1.569,1.569h-2.112   c-0.866,0-1.569-0.702-1.569-1.569V26.569C35.5,25.702,36.202,25,37.069,25z"/>
	
		<path fill="#E6E9EC" stroke="#000000FF" stroke-width="2" stroke-linecap="round" stroke-linejoin="round" stroke-miterlimit="10" d="   M24.819,25h2.112c0.866,0,1.569,0.702,1.569,1.569v10.862c0,0.866-0.702,1.569-1.569,1.569h-2.112   c-0.866,0-1.569-0.702-1.569-1.569V26.569C23.25,25.702,23.952,25,24.819,25z"/>
</g>
</svg>